<svg id="visual" viewBox="0 0 1366 768" width="1366" height="768" xmlns="http://www.w3.org/2000/svg" xmlns:xlink="http://www.w3.org/1999/xlink" version="1.1"><rect x="0" y="0" width="1366" height="768" fill="#38a5ff"></rect><defs><linearGradient id="grad1_0" x1="43.8%" y1="0%" x2="100%" y2="100%"><stop offset="14.427083333333334%" stop-color="#0066ff" stop-opacity="1"></stop><stop offset="85.57291666666667%" stop-color="#0066ff" stop-opacity="1"></stop></linearGradient></defs><defs><linearGradient id="grad1_1" x1="43.8%" y1="0%" x2="100%" y2="100%"><stop offset="14.427083333333334%" stop-color="#0066ff" stop-opacity="1"></stop><stop offset="85.57291666666667%" stop-color="#0078ff" stop-opacity="1"></stop></linearGradient></defs><defs><linearGradient id="grad1_2" x1="43.8%" y1="0%" x2="100%" y2="100%"><stop offset="14.427083333333334%" stop-color="#0088ff" stop-opacity="1"></stop><stop offset="85.57291666666667%" stop-color="#0078ff" stop-opacity="1"></stop></linearGradient></defs><defs><linearGradient id="grad1_3" x1="43.8%" y1="0%" x2="100%" y2="100%"><stop offset="14.427083333333334%" stop-color="#0088ff" stop-opacity="1"></stop><stop offset="85.57291666666667%" stop-color="#0497ff" stop-opacity="1"></stop></linearGradient></defs><defs><linearGradient id="grad1_4" x1="43.8%" y1="0%" x2="100%" y2="100%"><stop offset="14.427083333333334%" stop-color="#38a5ff" stop-opacity="1"></stop><stop offset="85.57291666666667%" stop-color="#0497ff" stop-opacity="1"></stop></linearGradient></defs><defs><linearGradient id="grad2_0" x1="0%" y1="0%" x2="56.2%" y2="100%"><stop offset="14.427083333333334%" stop-color="#0066ff" stop-opacity="1"></stop><stop offset="85.57291666666667%" stop-color="#0066ff" stop-opacity="1"></stop></linearGradient></defs><defs><linearGradient id="grad2_1" x1="0%" y1="0%" x2="56.2%" y2="100%"><stop offset="14.427083333333334%" stop-color="#0078ff" stop-opacity="1"></stop><stop offset="85.57291666666667%" stop-color="#0066ff" stop-opacity="1"></stop></linearGradient></defs><defs><linearGradient id="grad2_2" x1="0%" y1="0%" x2="56.2%" y2="100%"><stop offset="14.427083333333334%" stop-color="#0078ff" stop-opacity="1"></stop><stop offset="85.57291666666667%" stop-color="#0088ff" stop-opacity="1"></stop></linearGradient></defs><defs><linearGradient id="grad2_3" x1="0%" y1="0%" x2="56.2%" y2="100%"><stop offset="14.427083333333334%" stop-color="#0497ff" stop-opacity="1"></stop><stop offset="85.57291666666667%" stop-color="#0088ff" stop-opacity="1"></stop></linearGradient></defs><defs><linearGradient id="grad2_4" x1="0%" y1="0%" x2="56.2%" y2="100%"><stop offset="14.427083333333334%" stop-color="#0497ff" stop-opacity="1"></stop><stop offset="85.57291666666667%" stop-color="#38a5ff" stop-opacity="1"></stop></linearGradient></defs><g transform="translate(1366, 0)"><path d="M0 652.8C-59.5 615.6 -119 578.4 -181.4 558.3C-243.8 538.1 -309 535 -370.9 510.5C-432.8 486 -491.3 440.3 -528.1 383.7C-565 327.2 -580.1 259.8 -597.3 194.1C-614.4 128.3 -633.6 64.2 -652.8 0L0 0Z" fill="#249eff"></path><path d="M0 522.2C-47.6 492.5 -95.2 462.7 -145.1 446.6C-195 430.5 -247.2 428 -296.7 408.4C-346.2 388.8 -393 352.2 -422.5 307C-452 261.7 -464.1 207.8 -477.8 155.3C-491.5 102.7 -506.9 51.3 -522.2 0L0 0Z" fill="#0090ff"></path><path d="M0 391.7C-35.7 369.4 -71.4 347.1 -108.8 335C-146.3 322.9 -185.4 321 -222.5 306.3C-259.7 291.6 -294.8 264.2 -316.9 230.2C-339 196.3 -348.1 155.9 -358.4 116.4C-368.7 77 -380.2 38.5 -391.7 0L0 0Z" fill="#0080ff"></path><path d="M0 261.1C-23.8 246.2 -47.6 231.4 -72.6 223.3C-97.5 215.2 -123.6 214 -148.4 204.2C-173.1 194.4 -196.5 176.1 -211.3 153.5C-226 130.9 -232 103.9 -238.9 77.6C-245.8 51.3 -253.4 25.7 -261.1 0L0 0Z" fill="#006fff"></path><path d="M0 130.6C-11.9 123.1 -23.8 115.7 -36.3 111.7C-48.8 107.6 -61.8 107 -74.2 102.1C-86.6 97.2 -98.3 88.1 -105.6 76.7C-113 65.4 -116 52 -119.5 38.8C-122.9 25.7 -126.7 12.8 -130.6 0L0 0Z" fill="#0066ff"></path></g><g transform="translate(0, 768)"><path d="M0 -652.8C64.3 -638.8 128.7 -624.8 198.1 -609.6C267.5 -594.5 342 -578.3 383.7 -528.1C425.4 -478 434.3 -393.9 457.1 -332.1C479.9 -270.3 516.7 -230.9 551.6 -179.2C586.6 -127.6 619.7 -63.8 652.8 0L0 0Z" fill="#249eff"></path><path d="M0 -522.2C51.5 -511 102.9 -499.8 158.5 -487.7C214 -475.6 273.6 -462.6 307 -422.5C340.3 -382.4 347.4 -315.1 365.7 -265.7C383.9 -216.3 413.3 -184.7 441.3 -143.4C469.2 -102.1 495.7 -51 522.2 0L0 0Z" fill="#0090ff"></path><path d="M0 -391.7C38.6 -383.3 77.2 -374.9 118.8 -365.8C160.5 -356.7 205.2 -347 230.2 -316.9C255.2 -286.8 260.6 -236.3 274.3 -199.3C287.9 -162.2 310 -138.5 331 -107.5C351.9 -76.6 371.8 -38.3 391.7 0L0 0Z" fill="#0080ff"></path><path d="M0 -261.1C25.7 -255.5 51.5 -249.9 79.2 -243.9C107 -237.8 136.8 -231.3 153.5 -211.3C170.2 -191.2 173.7 -157.6 182.8 -132.8C192 -108.1 206.7 -92.3 220.6 -71.7C234.6 -51 247.9 -25.5 261.1 0L0 0Z" fill="#006fff"></path><path d="M0 -130.6C12.9 -127.8 25.7 -125 39.6 -121.9C53.5 -118.9 68.4 -115.7 76.7 -105.6C85.1 -95.6 86.9 -78.8 91.4 -66.4C96 -54.1 103.3 -46.2 110.3 -35.8C117.3 -25.5 123.9 -12.8 130.6 0L0 0Z" fill="#0066ff"></path></g></svg>